<mxfile host="Electron" modified="2024-02-04T18:37:18.205Z" agent="Mozilla/5.0 (Windows NT 10.0; Win64; x64) AppleWebKit/537.36 (KHTML, like Gecko) draw.io/23.0.2 Chrome/120.0.6099.109 Electron/28.1.0 Safari/537.36" etag="I840YBxW8nDwrf7ud7bh" version="23.0.2" type="device">
  <diagram name="Страница — 1" id="mxqGkfvjC52LhPRxkS0R">
    <mxGraphModel dx="1573" dy="2760" grid="1" gridSize="10" guides="1" tooltips="1" connect="1" arrows="1" fold="1" page="1" pageScale="1" pageWidth="827" pageHeight="1169" math="0" shadow="0">
      <root>
        <mxCell id="0" />
        <mxCell id="1" parent="0" />
        <mxCell id="iAsJZeEooDDqbmQcmovg-1" value="" style="edgeStyle=orthogonalEdgeStyle;rounded=0;orthogonalLoop=1;jettySize=auto;html=1;" edge="1" parent="1" source="iAsJZeEooDDqbmQcmovg-2" target="iAsJZeEooDDqbmQcmovg-7">
          <mxGeometry relative="1" as="geometry">
            <mxPoint x="360" y="230" as="targetPoint" />
          </mxGeometry>
        </mxCell>
        <mxCell id="iAsJZeEooDDqbmQcmovg-2" value="start" style="ellipse;whiteSpace=wrap;html=1;" vertex="1" parent="1">
          <mxGeometry x="300" y="20" width="120" height="50" as="geometry" />
        </mxCell>
        <mxCell id="iAsJZeEooDDqbmQcmovg-3" style="edgeStyle=orthogonalEdgeStyle;rounded=0;orthogonalLoop=1;jettySize=auto;html=1;exitX=0;exitY=0.5;exitDx=0;exitDy=0;exitPerimeter=0;endArrow=none;endFill=0;strokeWidth=1;" edge="1" parent="1" source="iAsJZeEooDDqbmQcmovg-4">
          <mxGeometry relative="1" as="geometry">
            <mxPoint x="360" y="150" as="targetPoint" />
            <mxPoint x="420" y="150" as="sourcePoint" />
            <Array as="points">
              <mxPoint x="360" y="170" />
            </Array>
          </mxGeometry>
        </mxCell>
        <mxCell id="iAsJZeEooDDqbmQcmovg-4" value="" style="strokeWidth=2;html=1;shape=mxgraph.flowchart.annotation_1;align=left;pointerEvents=1;" vertex="1" parent="1">
          <mxGeometry x="440.55" y="120" width="50" height="100" as="geometry" />
        </mxCell>
        <mxCell id="iAsJZeEooDDqbmQcmovg-5" value="#include &amp;lt;iostream&amp;gt;&lt;br&gt;#include &amp;lt;clocale&amp;gt;&lt;br&gt;using namespace std;&lt;br&gt;&lt;br&gt;int main(){&lt;br&gt;&lt;span style=&quot;white-space: pre;&quot;&gt;&#x9;&lt;/span&gt;setlocale(LC_ALL, &quot;Russian&quot;);" style="text;strokeColor=none;fillColor=none;align=left;verticalAlign=middle;spacingLeft=4;spacingRight=4;overflow=hidden;points=[[0,0.5],[1,0.5]];portConstraint=eastwest;rotatable=0;whiteSpace=wrap;html=1;" vertex="1" parent="1">
          <mxGeometry x="439.68" y="120" width="220" height="100" as="geometry" />
        </mxCell>
        <mxCell id="iAsJZeEooDDqbmQcmovg-6" style="edgeStyle=orthogonalEdgeStyle;rounded=0;orthogonalLoop=1;jettySize=auto;html=1;exitX=0.5;exitY=1;exitDx=0;exitDy=0;" edge="1" parent="1" source="iAsJZeEooDDqbmQcmovg-7" target="iAsJZeEooDDqbmQcmovg-8">
          <mxGeometry relative="1" as="geometry">
            <mxPoint x="360" y="270" as="targetPoint" />
          </mxGeometry>
        </mxCell>
        <mxCell id="iAsJZeEooDDqbmQcmovg-7" value="int n, mode;" style="rounded=1;whiteSpace=wrap;html=1;absoluteArcSize=1;arcSize=14;strokeWidth=2;" vertex="1" parent="1">
          <mxGeometry x="310" y="190" width="100" height="40" as="geometry" />
        </mxCell>
        <mxCell id="iAsJZeEooDDqbmQcmovg-31" style="edgeStyle=orthogonalEdgeStyle;rounded=0;orthogonalLoop=1;jettySize=auto;html=1;exitX=0.5;exitY=1;exitDx=0;exitDy=0;entryX=0.5;entryY=0;entryDx=0;entryDy=0;" edge="1" parent="1" source="iAsJZeEooDDqbmQcmovg-8" target="iAsJZeEooDDqbmQcmovg-10">
          <mxGeometry relative="1" as="geometry" />
        </mxCell>
        <mxCell id="iAsJZeEooDDqbmQcmovg-8" value="int mtr[100][100];" style="rounded=1;whiteSpace=wrap;html=1;absoluteArcSize=1;arcSize=14;strokeWidth=2;" vertex="1" parent="1">
          <mxGeometry x="310" y="260" width="100" height="40" as="geometry" />
        </mxCell>
        <mxCell id="iAsJZeEooDDqbmQcmovg-9" style="edgeStyle=orthogonalEdgeStyle;rounded=0;orthogonalLoop=1;jettySize=auto;html=1;exitX=0.5;exitY=1;exitDx=0;exitDy=0;" edge="1" parent="1" source="iAsJZeEooDDqbmQcmovg-10" target="iAsJZeEooDDqbmQcmovg-12">
          <mxGeometry relative="1" as="geometry">
            <mxPoint x="360" y="420" as="targetPoint" />
          </mxGeometry>
        </mxCell>
        <mxCell id="iAsJZeEooDDqbmQcmovg-10" value="cout &amp;lt;&amp;lt; &quot;Введите длину массива: &quot;;" style="shape=parallelogram;html=1;strokeWidth=2;perimeter=parallelogramPerimeter;whiteSpace=wrap;rounded=1;arcSize=12;size=0.11538461538461539;" vertex="1" parent="1">
          <mxGeometry x="230" y="340" width="260" height="40" as="geometry" />
        </mxCell>
        <mxCell id="iAsJZeEooDDqbmQcmovg-11" style="edgeStyle=orthogonalEdgeStyle;rounded=0;orthogonalLoop=1;jettySize=auto;html=1;exitX=0.5;exitY=1;exitDx=0;exitDy=0;" edge="1" parent="1" source="iAsJZeEooDDqbmQcmovg-12" target="iAsJZeEooDDqbmQcmovg-14">
          <mxGeometry relative="1" as="geometry">
            <mxPoint x="360" y="530" as="targetPoint" />
          </mxGeometry>
        </mxCell>
        <mxCell id="iAsJZeEooDDqbmQcmovg-12" value="do" style="rounded=1;whiteSpace=wrap;html=1;absoluteArcSize=1;arcSize=14;strokeWidth=2;" vertex="1" parent="1">
          <mxGeometry x="310" y="420" width="100" height="40" as="geometry" />
        </mxCell>
        <mxCell id="iAsJZeEooDDqbmQcmovg-13" style="edgeStyle=orthogonalEdgeStyle;rounded=0;orthogonalLoop=1;jettySize=auto;html=1;exitX=0.5;exitY=1;exitDx=0;exitDy=0;" edge="1" parent="1" source="iAsJZeEooDDqbmQcmovg-14" target="iAsJZeEooDDqbmQcmovg-17">
          <mxGeometry relative="1" as="geometry">
            <mxPoint x="360" y="580" as="targetPoint" />
          </mxGeometry>
        </mxCell>
        <mxCell id="iAsJZeEooDDqbmQcmovg-14" value="cin &amp;gt;&amp;gt; n;" style="shape=parallelogram;html=1;strokeWidth=2;perimeter=parallelogramPerimeter;whiteSpace=wrap;rounded=1;arcSize=12;size=0.16666666666666666;" vertex="1" parent="1">
          <mxGeometry x="280" y="500" width="160" height="40" as="geometry" />
        </mxCell>
        <mxCell id="iAsJZeEooDDqbmQcmovg-15" style="edgeStyle=orthogonalEdgeStyle;rounded=0;orthogonalLoop=1;jettySize=auto;html=1;exitX=0;exitY=0.5;exitDx=0;exitDy=0;exitPerimeter=0;" edge="1" parent="1" source="iAsJZeEooDDqbmQcmovg-17" target="iAsJZeEooDDqbmQcmovg-19">
          <mxGeometry relative="1" as="geometry">
            <mxPoint x="220" y="660" as="targetPoint" />
          </mxGeometry>
        </mxCell>
        <mxCell id="iAsJZeEooDDqbmQcmovg-16" style="edgeStyle=orthogonalEdgeStyle;rounded=0;orthogonalLoop=1;jettySize=auto;html=1;exitX=1;exitY=0.5;exitDx=0;exitDy=0;exitPerimeter=0;" edge="1" parent="1" source="iAsJZeEooDDqbmQcmovg-17">
          <mxGeometry relative="1" as="geometry">
            <mxPoint x="360" y="740" as="targetPoint" />
            <Array as="points">
              <mxPoint x="480" y="610" />
              <mxPoint x="480" y="740" />
            </Array>
          </mxGeometry>
        </mxCell>
        <mxCell id="iAsJZeEooDDqbmQcmovg-17" value="if ((n &amp;gt; 50) || (n &amp;lt; 1))" style="strokeWidth=2;html=1;shape=mxgraph.flowchart.decision;whiteSpace=wrap;" vertex="1" parent="1">
          <mxGeometry x="260" y="580" width="200" height="60" as="geometry" />
        </mxCell>
        <mxCell id="iAsJZeEooDDqbmQcmovg-18" style="edgeStyle=orthogonalEdgeStyle;rounded=0;orthogonalLoop=1;jettySize=auto;html=1;exitX=0.5;exitY=1;exitDx=0;exitDy=0;" edge="1" parent="1" source="iAsJZeEooDDqbmQcmovg-19">
          <mxGeometry relative="1" as="geometry">
            <mxPoint x="360" y="740" as="targetPoint" />
            <Array as="points">
              <mxPoint x="220" y="740" />
            </Array>
          </mxGeometry>
        </mxCell>
        <mxCell id="iAsJZeEooDDqbmQcmovg-19" value="cout &amp;lt;&amp;lt; &quot;Не корректная длина массива, повторите ввод: &quot;;" style="shape=parallelogram;html=1;strokeWidth=2;perimeter=parallelogramPerimeter;whiteSpace=wrap;rounded=1;arcSize=12;size=0.05113636363636363;" vertex="1" parent="1">
          <mxGeometry x="30" y="660" width="380" height="40" as="geometry" />
        </mxCell>
        <mxCell id="iAsJZeEooDDqbmQcmovg-20" value="" style="endArrow=classic;html=1;rounded=0;" edge="1" parent="1">
          <mxGeometry width="50" height="50" relative="1" as="geometry">
            <mxPoint x="359.40999999999997" y="740" as="sourcePoint" />
            <mxPoint x="360" y="780" as="targetPoint" />
          </mxGeometry>
        </mxCell>
        <mxCell id="iAsJZeEooDDqbmQcmovg-21" value="1" style="text;html=1;strokeColor=none;fillColor=none;align=center;verticalAlign=middle;whiteSpace=wrap;rounded=0;" vertex="1" parent="1">
          <mxGeometry x="230" y="580" width="30" height="30" as="geometry" />
        </mxCell>
        <mxCell id="iAsJZeEooDDqbmQcmovg-22" value="0" style="text;html=1;strokeColor=none;fillColor=none;align=center;verticalAlign=middle;whiteSpace=wrap;rounded=0;" vertex="1" parent="1">
          <mxGeometry x="460" y="580" width="30" height="30" as="geometry" />
        </mxCell>
        <mxCell id="iAsJZeEooDDqbmQcmovg-23" style="edgeStyle=orthogonalEdgeStyle;rounded=0;orthogonalLoop=1;jettySize=auto;html=1;exitX=1;exitY=0.5;exitDx=0;exitDy=0;exitPerimeter=0;" edge="1" parent="1" source="iAsJZeEooDDqbmQcmovg-25" target="iAsJZeEooDDqbmQcmovg-30">
          <mxGeometry relative="1" as="geometry">
            <mxPoint x="510" y="880" as="targetPoint" />
          </mxGeometry>
        </mxCell>
        <mxCell id="iAsJZeEooDDqbmQcmovg-24" style="edgeStyle=orthogonalEdgeStyle;rounded=0;orthogonalLoop=1;jettySize=auto;html=1;exitX=0.5;exitY=1;exitDx=0;exitDy=0;exitPerimeter=0;" edge="1" parent="1" source="iAsJZeEooDDqbmQcmovg-25">
          <mxGeometry relative="1" as="geometry">
            <mxPoint x="360" y="480" as="targetPoint" />
            <Array as="points">
              <mxPoint x="360" y="890" />
              <mxPoint x="20" y="890" />
              <mxPoint x="20" y="480" />
              <mxPoint x="360" y="480" />
            </Array>
          </mxGeometry>
        </mxCell>
        <mxCell id="iAsJZeEooDDqbmQcmovg-25" value="while&amp;nbsp;((n &amp;gt; 50) || (n &amp;lt; 1));" style="strokeWidth=2;html=1;shape=mxgraph.flowchart.decision;whiteSpace=wrap;" vertex="1" parent="1">
          <mxGeometry x="260" y="780" width="200" height="60" as="geometry" />
        </mxCell>
        <mxCell id="iAsJZeEooDDqbmQcmovg-26" value="1" style="text;html=1;strokeColor=none;fillColor=none;align=center;verticalAlign=middle;whiteSpace=wrap;rounded=0;" vertex="1" parent="1">
          <mxGeometry x="330" y="840" width="30" height="30" as="geometry" />
        </mxCell>
        <mxCell id="iAsJZeEooDDqbmQcmovg-27" value="0" style="text;html=1;strokeColor=none;fillColor=none;align=center;verticalAlign=middle;whiteSpace=wrap;rounded=0;" vertex="1" parent="1">
          <mxGeometry x="459.28999999999996" y="780" width="30" height="30" as="geometry" />
        </mxCell>
        <mxCell id="iAsJZeEooDDqbmQcmovg-28" value="}" style="text;html=1;strokeColor=none;fillColor=none;align=center;verticalAlign=middle;whiteSpace=wrap;rounded=0;" vertex="1" parent="1">
          <mxGeometry x="360" y="840" width="30" height="30" as="geometry" />
        </mxCell>
        <mxCell id="iAsJZeEooDDqbmQcmovg-29" value="{" style="text;html=1;strokeColor=none;fillColor=none;align=center;verticalAlign=middle;whiteSpace=wrap;rounded=0;" vertex="1" parent="1">
          <mxGeometry x="360" y="470" width="30" height="30" as="geometry" />
        </mxCell>
        <mxCell id="iAsJZeEooDDqbmQcmovg-30" value="cout &amp;lt;&amp;lt; endl;" style="shape=parallelogram;html=1;strokeWidth=2;perimeter=parallelogramPerimeter;whiteSpace=wrap;rounded=1;arcSize=12;size=0.16666666666666666;" vertex="1" parent="1">
          <mxGeometry x="429.9999999999998" y="860" width="160" height="40" as="geometry" />
        </mxCell>
        <mxCell id="iAsJZeEooDDqbmQcmovg-32" style="edgeStyle=orthogonalEdgeStyle;rounded=0;orthogonalLoop=1;jettySize=auto;html=1;exitX=0.5;exitY=1;exitDx=0;exitDy=0;" edge="1" parent="1" source="iAsJZeEooDDqbmQcmovg-30">
          <mxGeometry relative="1" as="geometry">
            <mxPoint x="359.9299999999998" y="960" as="targetPoint" />
            <mxPoint x="509.93" y="920" as="sourcePoint" />
          </mxGeometry>
        </mxCell>
        <mxCell id="iAsJZeEooDDqbmQcmovg-33" style="edgeStyle=orthogonalEdgeStyle;rounded=0;orthogonalLoop=1;jettySize=auto;html=1;exitX=0.5;exitY=1;exitDx=0;exitDy=0;" edge="1" parent="1" source="iAsJZeEooDDqbmQcmovg-34" target="iAsJZeEooDDqbmQcmovg-36">
          <mxGeometry relative="1" as="geometry">
            <mxPoint x="359.93" y="1040" as="targetPoint" />
          </mxGeometry>
        </mxCell>
        <mxCell id="iAsJZeEooDDqbmQcmovg-34" value="cout &amp;lt;&amp;lt; &quot;Укажите режим создания массива: 1. ручной / 2. автоматический: &quot;;" style="shape=parallelogram;html=1;strokeWidth=2;perimeter=parallelogramPerimeter;whiteSpace=wrap;rounded=1;arcSize=12;size=0.041666666666666664;" vertex="1" parent="1">
          <mxGeometry x="119.93" y="960" width="480" height="40" as="geometry" />
        </mxCell>
        <mxCell id="iAsJZeEooDDqbmQcmovg-35" style="edgeStyle=orthogonalEdgeStyle;rounded=0;orthogonalLoop=1;jettySize=auto;html=1;exitX=0.5;exitY=1;exitDx=0;exitDy=0;" edge="1" parent="1" source="iAsJZeEooDDqbmQcmovg-36" target="iAsJZeEooDDqbmQcmovg-38">
          <mxGeometry relative="1" as="geometry">
            <mxPoint x="359.84" y="1239" as="targetPoint" />
            <mxPoint x="359.84" y="1169" as="sourcePoint" />
          </mxGeometry>
        </mxCell>
        <mxCell id="iAsJZeEooDDqbmQcmovg-36" value="do" style="rounded=1;whiteSpace=wrap;html=1;absoluteArcSize=1;arcSize=14;strokeWidth=2;" vertex="1" parent="1">
          <mxGeometry x="309.93" y="1040" width="100" height="40" as="geometry" />
        </mxCell>
        <mxCell id="iAsJZeEooDDqbmQcmovg-37" style="edgeStyle=orthogonalEdgeStyle;rounded=0;orthogonalLoop=1;jettySize=auto;html=1;exitX=0.5;exitY=1;exitDx=0;exitDy=0;" edge="1" parent="1" source="iAsJZeEooDDqbmQcmovg-38" target="iAsJZeEooDDqbmQcmovg-41">
          <mxGeometry relative="1" as="geometry">
            <mxPoint x="359.84" y="1289" as="targetPoint" />
          </mxGeometry>
        </mxCell>
        <mxCell id="iAsJZeEooDDqbmQcmovg-38" value="cin &amp;gt;&amp;gt; mode;" style="shape=parallelogram;html=1;strokeWidth=2;perimeter=parallelogramPerimeter;whiteSpace=wrap;rounded=1;arcSize=12;size=0.16666666666666666;" vertex="1" parent="1">
          <mxGeometry x="279.84" y="1209" width="160" height="40" as="geometry" />
        </mxCell>
        <mxCell id="iAsJZeEooDDqbmQcmovg-39" style="edgeStyle=orthogonalEdgeStyle;rounded=0;orthogonalLoop=1;jettySize=auto;html=1;exitX=0;exitY=0.5;exitDx=0;exitDy=0;exitPerimeter=0;" edge="1" parent="1" source="iAsJZeEooDDqbmQcmovg-41" target="iAsJZeEooDDqbmQcmovg-43">
          <mxGeometry relative="1" as="geometry">
            <mxPoint x="219.84" y="1369" as="targetPoint" />
          </mxGeometry>
        </mxCell>
        <mxCell id="iAsJZeEooDDqbmQcmovg-40" style="edgeStyle=orthogonalEdgeStyle;rounded=0;orthogonalLoop=1;jettySize=auto;html=1;exitX=1;exitY=0.5;exitDx=0;exitDy=0;exitPerimeter=0;" edge="1" parent="1" source="iAsJZeEooDDqbmQcmovg-41">
          <mxGeometry relative="1" as="geometry">
            <mxPoint x="359.84" y="1449" as="targetPoint" />
            <Array as="points">
              <mxPoint x="489.84" y="1319" />
              <mxPoint x="489.84" y="1449" />
            </Array>
          </mxGeometry>
        </mxCell>
        <mxCell id="iAsJZeEooDDqbmQcmovg-41" value="if ((mode != 1) &amp;amp;&amp;amp; (mode != 2))" style="strokeWidth=2;html=1;shape=mxgraph.flowchart.decision;whiteSpace=wrap;" vertex="1" parent="1">
          <mxGeometry x="239.83999999999997" y="1289" width="240" height="60" as="geometry" />
        </mxCell>
        <mxCell id="iAsJZeEooDDqbmQcmovg-42" style="edgeStyle=orthogonalEdgeStyle;rounded=0;orthogonalLoop=1;jettySize=auto;html=1;exitX=0.5;exitY=1;exitDx=0;exitDy=0;" edge="1" parent="1" source="iAsJZeEooDDqbmQcmovg-43">
          <mxGeometry relative="1" as="geometry">
            <mxPoint x="359.84" y="1449" as="targetPoint" />
            <Array as="points">
              <mxPoint x="219.84" y="1449" />
            </Array>
          </mxGeometry>
        </mxCell>
        <mxCell id="iAsJZeEooDDqbmQcmovg-43" value="cout &amp;lt;&amp;lt; &quot;Не корректное указание режима, повторите ввод: &quot;;" style="shape=parallelogram;html=1;strokeWidth=2;perimeter=parallelogramPerimeter;whiteSpace=wrap;rounded=1;arcSize=12;size=0.05113636363636363;" vertex="1" parent="1">
          <mxGeometry x="29.840000000000003" y="1369" width="380" height="40" as="geometry" />
        </mxCell>
        <mxCell id="iAsJZeEooDDqbmQcmovg-44" value="" style="endArrow=classic;html=1;rounded=0;" edge="1" parent="1">
          <mxGeometry width="50" height="50" relative="1" as="geometry">
            <mxPoint x="359.24999999999994" y="1449" as="sourcePoint" />
            <mxPoint x="359.84" y="1489" as="targetPoint" />
          </mxGeometry>
        </mxCell>
        <mxCell id="iAsJZeEooDDqbmQcmovg-45" value="1" style="text;html=1;strokeColor=none;fillColor=none;align=center;verticalAlign=middle;whiteSpace=wrap;rounded=0;" vertex="1" parent="1">
          <mxGeometry x="229.84" y="1289" width="30" height="30" as="geometry" />
        </mxCell>
        <mxCell id="iAsJZeEooDDqbmQcmovg-46" value="0" style="text;html=1;strokeColor=none;fillColor=none;align=center;verticalAlign=middle;whiteSpace=wrap;rounded=0;" vertex="1" parent="1">
          <mxGeometry x="459.84" y="1289" width="30" height="30" as="geometry" />
        </mxCell>
        <mxCell id="iAsJZeEooDDqbmQcmovg-47" style="edgeStyle=orthogonalEdgeStyle;rounded=0;orthogonalLoop=1;jettySize=auto;html=1;exitX=1;exitY=0.5;exitDx=0;exitDy=0;exitPerimeter=0;" edge="1" parent="1" source="iAsJZeEooDDqbmQcmovg-49" target="iAsJZeEooDDqbmQcmovg-55">
          <mxGeometry relative="1" as="geometry">
            <mxPoint x="509.84" y="1589" as="targetPoint" />
            <Array as="points">
              <mxPoint x="509.84" y="1519" />
            </Array>
          </mxGeometry>
        </mxCell>
        <mxCell id="iAsJZeEooDDqbmQcmovg-48" style="edgeStyle=orthogonalEdgeStyle;rounded=0;orthogonalLoop=1;jettySize=auto;html=1;exitX=0.5;exitY=1;exitDx=0;exitDy=0;exitPerimeter=0;" edge="1" parent="1" source="iAsJZeEooDDqbmQcmovg-49">
          <mxGeometry relative="1" as="geometry">
            <mxPoint x="359.84" y="1189" as="targetPoint" />
            <Array as="points">
              <mxPoint x="359.84" y="1579" />
              <mxPoint x="19.840000000000003" y="1579" />
              <mxPoint x="19.840000000000003" y="1189" />
            </Array>
          </mxGeometry>
        </mxCell>
        <mxCell id="iAsJZeEooDDqbmQcmovg-49" value="while ((mode != 1) &amp;amp;&amp;amp; (mode != 2));" style="strokeWidth=2;html=1;shape=mxgraph.flowchart.decision;whiteSpace=wrap;" vertex="1" parent="1">
          <mxGeometry x="219.84" y="1489" width="280" height="60" as="geometry" />
        </mxCell>
        <mxCell id="iAsJZeEooDDqbmQcmovg-50" value="1" style="text;html=1;strokeColor=none;fillColor=none;align=center;verticalAlign=middle;whiteSpace=wrap;rounded=0;" vertex="1" parent="1">
          <mxGeometry x="329.84" y="1549" width="30" height="30" as="geometry" />
        </mxCell>
        <mxCell id="iAsJZeEooDDqbmQcmovg-51" value="0" style="text;html=1;strokeColor=none;fillColor=none;align=center;verticalAlign=middle;whiteSpace=wrap;rounded=0;" vertex="1" parent="1">
          <mxGeometry x="459.12999999999994" y="1489" width="30" height="30" as="geometry" />
        </mxCell>
        <mxCell id="iAsJZeEooDDqbmQcmovg-52" value="}" style="text;html=1;strokeColor=none;fillColor=none;align=center;verticalAlign=middle;whiteSpace=wrap;rounded=0;" vertex="1" parent="1">
          <mxGeometry x="359.84" y="1549" width="30" height="30" as="geometry" />
        </mxCell>
        <mxCell id="iAsJZeEooDDqbmQcmovg-53" value="{" style="text;html=1;strokeColor=none;fillColor=none;align=center;verticalAlign=middle;whiteSpace=wrap;rounded=0;" vertex="1" parent="1">
          <mxGeometry x="359.84" y="1179" width="30" height="30" as="geometry" />
        </mxCell>
        <mxCell id="iAsJZeEooDDqbmQcmovg-54" style="edgeStyle=orthogonalEdgeStyle;rounded=0;orthogonalLoop=1;jettySize=auto;html=1;exitX=0.5;exitY=1;exitDx=0;exitDy=0;" edge="1" parent="1" source="iAsJZeEooDDqbmQcmovg-55" target="iAsJZeEooDDqbmQcmovg-57">
          <mxGeometry relative="1" as="geometry">
            <mxPoint x="359.83999999999975" y="1649" as="targetPoint" />
          </mxGeometry>
        </mxCell>
        <mxCell id="iAsJZeEooDDqbmQcmovg-55" value="cout &amp;lt;&amp;lt; endl;" style="shape=parallelogram;html=1;strokeWidth=2;perimeter=parallelogramPerimeter;whiteSpace=wrap;rounded=1;arcSize=12;size=0.16666666666666666;" vertex="1" parent="1">
          <mxGeometry x="429.83999999999975" y="1569" width="160" height="40" as="geometry" />
        </mxCell>
        <mxCell id="iAsJZeEooDDqbmQcmovg-56" style="edgeStyle=orthogonalEdgeStyle;rounded=0;orthogonalLoop=1;jettySize=auto;html=1;exitX=0.5;exitY=1;exitDx=0;exitDy=0;exitPerimeter=0;entryX=0;entryY=0.5;entryDx=0;entryDy=0;" edge="1" parent="1" source="iAsJZeEooDDqbmQcmovg-57" target="iAsJZeEooDDqbmQcmovg-59">
          <mxGeometry relative="1" as="geometry">
            <mxPoint x="112.53619047619048" y="1859" as="targetPoint" />
          </mxGeometry>
        </mxCell>
        <mxCell id="iAsJZeEooDDqbmQcmovg-57" value="switch (mode)" style="strokeWidth=2;html=1;shape=mxgraph.flowchart.decision;whiteSpace=wrap;" vertex="1" parent="1">
          <mxGeometry x="17.060000000000002" y="1649" width="190" height="60" as="geometry" />
        </mxCell>
        <mxCell id="iAsJZeEooDDqbmQcmovg-58" style="edgeStyle=orthogonalEdgeStyle;rounded=0;orthogonalLoop=1;jettySize=auto;html=1;exitX=1;exitY=0.5;exitDx=0;exitDy=0;" edge="1" parent="1" source="iAsJZeEooDDqbmQcmovg-59" target="iAsJZeEooDDqbmQcmovg-61">
          <mxGeometry relative="1" as="geometry">
            <mxPoint x="282.06" y="1739" as="targetPoint" />
          </mxGeometry>
        </mxCell>
        <mxCell id="iAsJZeEooDDqbmQcmovg-59" value="case 1:" style="rounded=1;whiteSpace=wrap;html=1;absoluteArcSize=1;arcSize=14;strokeWidth=2;" vertex="1" parent="1">
          <mxGeometry x="152.06" y="1719" width="100" height="40" as="geometry" />
        </mxCell>
        <mxCell id="iAsJZeEooDDqbmQcmovg-60" style="edgeStyle=orthogonalEdgeStyle;rounded=0;orthogonalLoop=1;jettySize=auto;html=1;exitX=0.5;exitY=1;exitDx=0;exitDy=0;" edge="1" parent="1" source="iAsJZeEooDDqbmQcmovg-61" target="iAsJZeEooDDqbmQcmovg-64">
          <mxGeometry relative="1" as="geometry">
            <mxPoint x="472.06" y="1799" as="targetPoint" />
          </mxGeometry>
        </mxCell>
        <mxCell id="iAsJZeEooDDqbmQcmovg-61" value="cout &amp;lt;&amp;lt; &quot;Вводите элементы массива: &quot; &amp;lt;&amp;lt; endl;" style="shape=parallelogram;html=1;strokeWidth=2;perimeter=parallelogramPerimeter;whiteSpace=wrap;rounded=1;arcSize=12;size=0.16666666666666666;" vertex="1" parent="1">
          <mxGeometry x="292.06" y="1719" width="360" height="40" as="geometry" />
        </mxCell>
        <mxCell id="iAsJZeEooDDqbmQcmovg-62" style="edgeStyle=orthogonalEdgeStyle;rounded=0;orthogonalLoop=1;jettySize=auto;html=1;exitX=0.5;exitY=1;exitDx=0;exitDy=0;" edge="1" parent="1" source="iAsJZeEooDDqbmQcmovg-64">
          <mxGeometry relative="1" as="geometry">
            <mxPoint x="472.05999999999995" y="1879" as="targetPoint" />
          </mxGeometry>
        </mxCell>
        <mxCell id="iAsJZeEooDDqbmQcmovg-63" style="edgeStyle=orthogonalEdgeStyle;rounded=0;orthogonalLoop=1;jettySize=auto;html=1;exitX=1;exitY=0.5;exitDx=0;exitDy=0;" edge="1" parent="1" source="iAsJZeEooDDqbmQcmovg-64" target="iAsJZeEooDDqbmQcmovg-72">
          <mxGeometry relative="1" as="geometry">
            <mxPoint x="632.06" y="1819" as="targetPoint" />
          </mxGeometry>
        </mxCell>
        <mxCell id="iAsJZeEooDDqbmQcmovg-64" value="for (int i = 0; i &amp;lt; n; ++i)" style="verticalLabelPosition=middle;verticalAlign=middle;html=1;shape=hexagon;perimeter=hexagonPerimeter2;arcSize=6;size=0.15;labelPosition=center;align=center;" vertex="1" parent="1">
          <mxGeometry x="372.06" y="1799" width="200" height="40" as="geometry" />
        </mxCell>
        <mxCell id="iAsJZeEooDDqbmQcmovg-65" value="1" style="text;html=1;strokeColor=none;fillColor=none;align=center;verticalAlign=middle;whiteSpace=wrap;rounded=0;" vertex="1" parent="1">
          <mxGeometry x="442.06" y="1839" width="30" height="30" as="geometry" />
        </mxCell>
        <mxCell id="iAsJZeEooDDqbmQcmovg-66" value="{" style="text;html=1;strokeColor=none;fillColor=none;align=center;verticalAlign=middle;whiteSpace=wrap;rounded=0;" vertex="1" parent="1">
          <mxGeometry x="472.06" y="1839" width="30" height="30" as="geometry" />
        </mxCell>
        <mxCell id="iAsJZeEooDDqbmQcmovg-67" value="0" style="text;html=1;strokeColor=none;fillColor=none;align=center;verticalAlign=middle;whiteSpace=wrap;rounded=0;" vertex="1" parent="1">
          <mxGeometry x="572.06" y="1789" width="30" height="30" as="geometry" />
        </mxCell>
        <mxCell id="iAsJZeEooDDqbmQcmovg-70" value="}" style="text;html=1;strokeColor=none;fillColor=none;align=center;verticalAlign=middle;whiteSpace=wrap;rounded=0;" vertex="1" parent="1">
          <mxGeometry x="469.68" y="2080" width="30" height="30" as="geometry" />
        </mxCell>
        <mxCell id="iAsJZeEooDDqbmQcmovg-71" style="edgeStyle=orthogonalEdgeStyle;rounded=0;orthogonalLoop=1;jettySize=auto;html=1;exitX=1;exitY=0.5;exitDx=0;exitDy=0;" edge="1" parent="1" source="iAsJZeEooDDqbmQcmovg-72" target="iAsJZeEooDDqbmQcmovg-74">
          <mxGeometry relative="1" as="geometry">
            <mxPoint x="802.06" y="1819" as="targetPoint" />
          </mxGeometry>
        </mxCell>
        <mxCell id="iAsJZeEooDDqbmQcmovg-72" value="cout &amp;lt;&amp;lt; endl;" style="shape=parallelogram;html=1;strokeWidth=2;perimeter=parallelogramPerimeter;whiteSpace=wrap;rounded=1;arcSize=12;size=0.16666666666666666;" vertex="1" parent="1">
          <mxGeometry x="612.06" y="1799" width="160" height="40" as="geometry" />
        </mxCell>
        <mxCell id="iAsJZeEooDDqbmQcmovg-73" style="edgeStyle=orthogonalEdgeStyle;rounded=0;orthogonalLoop=1;jettySize=auto;html=1;exitX=1;exitY=0.5;exitDx=0;exitDy=0;entryX=0.5;entryY=0;entryDx=0;entryDy=0;" edge="1" parent="1" source="iAsJZeEooDDqbmQcmovg-74" target="iAsJZeEooDDqbmQcmovg-148">
          <mxGeometry relative="1" as="geometry">
            <mxPoint x="359" y="2610" as="targetPoint" />
            <Array as="points">
              <mxPoint x="960" y="1819" />
              <mxPoint x="960" y="2580" />
              <mxPoint x="269" y="2580" />
              <mxPoint x="269" y="2630" />
            </Array>
          </mxGeometry>
        </mxCell>
        <mxCell id="iAsJZeEooDDqbmQcmovg-74" value="break;" style="rounded=1;whiteSpace=wrap;html=1;absoluteArcSize=1;arcSize=14;strokeWidth=2;" vertex="1" parent="1">
          <mxGeometry x="792.06" y="1799" width="100" height="40" as="geometry" />
        </mxCell>
        <mxCell id="iAsJZeEooDDqbmQcmovg-75" style="edgeStyle=orthogonalEdgeStyle;rounded=0;orthogonalLoop=1;jettySize=auto;html=1;exitX=0.5;exitY=1;exitDx=0;exitDy=0;exitPerimeter=0;entryX=0;entryY=0.5;entryDx=0;entryDy=0;" edge="1" parent="1" source="iAsJZeEooDDqbmQcmovg-57" target="iAsJZeEooDDqbmQcmovg-77">
          <mxGeometry relative="1" as="geometry">
            <mxPoint x="140" y="2240" as="targetPoint" />
            <mxPoint x="62.059999999999995" y="1899" as="sourcePoint" />
            <Array as="points">
              <mxPoint x="112" y="2170" />
            </Array>
          </mxGeometry>
        </mxCell>
        <mxCell id="iAsJZeEooDDqbmQcmovg-76" style="edgeStyle=orthogonalEdgeStyle;rounded=0;orthogonalLoop=1;jettySize=auto;html=1;exitX=1;exitY=0.5;exitDx=0;exitDy=0;entryX=0;entryY=0.5;entryDx=0;entryDy=0;" edge="1" parent="1" source="iAsJZeEooDDqbmQcmovg-77" target="iAsJZeEooDDqbmQcmovg-91">
          <mxGeometry relative="1" as="geometry">
            <mxPoint x="340" y="2170" as="targetPoint" />
          </mxGeometry>
        </mxCell>
        <mxCell id="iAsJZeEooDDqbmQcmovg-77" value="case 2:" style="rounded=1;whiteSpace=wrap;html=1;absoluteArcSize=1;arcSize=14;strokeWidth=2;" vertex="1" parent="1">
          <mxGeometry x="170.00000000000006" y="2150" width="100" height="40" as="geometry" />
        </mxCell>
        <mxCell id="iAsJZeEooDDqbmQcmovg-78" style="edgeStyle=orthogonalEdgeStyle;rounded=0;orthogonalLoop=1;jettySize=auto;html=1;exitX=0.5;exitY=1;exitDx=0;exitDy=0;" edge="1" parent="1" target="iAsJZeEooDDqbmQcmovg-81">
          <mxGeometry relative="1" as="geometry">
            <mxPoint x="490" y="2230" as="targetPoint" />
            <mxPoint x="490" y="2190" as="sourcePoint" />
          </mxGeometry>
        </mxCell>
        <mxCell id="iAsJZeEooDDqbmQcmovg-79" style="edgeStyle=orthogonalEdgeStyle;rounded=0;orthogonalLoop=1;jettySize=auto;html=1;exitX=0.5;exitY=1;exitDx=0;exitDy=0;" edge="1" parent="1" source="iAsJZeEooDDqbmQcmovg-81">
          <mxGeometry relative="1" as="geometry">
            <mxPoint x="490" y="2310" as="targetPoint" />
          </mxGeometry>
        </mxCell>
        <mxCell id="iAsJZeEooDDqbmQcmovg-80" style="edgeStyle=orthogonalEdgeStyle;rounded=0;orthogonalLoop=1;jettySize=auto;html=1;exitX=1;exitY=0.5;exitDx=0;exitDy=0;" edge="1" parent="1" source="iAsJZeEooDDqbmQcmovg-81" target="iAsJZeEooDDqbmQcmovg-88">
          <mxGeometry relative="1" as="geometry">
            <mxPoint x="649.9999999999999" y="2250" as="targetPoint" />
          </mxGeometry>
        </mxCell>
        <mxCell id="iAsJZeEooDDqbmQcmovg-81" value="for (int i = 0; i &amp;lt; n; ++i)" style="verticalLabelPosition=middle;verticalAlign=middle;html=1;shape=hexagon;perimeter=hexagonPerimeter2;arcSize=6;size=0.15;labelPosition=center;align=center;" vertex="1" parent="1">
          <mxGeometry x="390" y="2230" width="200" height="40" as="geometry" />
        </mxCell>
        <mxCell id="iAsJZeEooDDqbmQcmovg-82" value="1" style="text;html=1;strokeColor=none;fillColor=none;align=center;verticalAlign=middle;whiteSpace=wrap;rounded=0;" vertex="1" parent="1">
          <mxGeometry x="460" y="2270" width="30" height="30" as="geometry" />
        </mxCell>
        <mxCell id="iAsJZeEooDDqbmQcmovg-83" value="{" style="text;html=1;strokeColor=none;fillColor=none;align=center;verticalAlign=middle;whiteSpace=wrap;rounded=0;" vertex="1" parent="1">
          <mxGeometry x="490" y="2270" width="30" height="30" as="geometry" />
        </mxCell>
        <mxCell id="iAsJZeEooDDqbmQcmovg-84" value="0" style="text;html=1;strokeColor=none;fillColor=none;align=center;verticalAlign=middle;whiteSpace=wrap;rounded=0;" vertex="1" parent="1">
          <mxGeometry x="589.9999999999999" y="2220" width="30" height="30" as="geometry" />
        </mxCell>
        <mxCell id="iAsJZeEooDDqbmQcmovg-87" style="edgeStyle=orthogonalEdgeStyle;rounded=0;orthogonalLoop=1;jettySize=auto;html=1;exitX=1;exitY=0.5;exitDx=0;exitDy=0;" edge="1" parent="1" source="iAsJZeEooDDqbmQcmovg-88" target="iAsJZeEooDDqbmQcmovg-90">
          <mxGeometry relative="1" as="geometry">
            <mxPoint x="819.9999999999999" y="2250" as="targetPoint" />
          </mxGeometry>
        </mxCell>
        <mxCell id="iAsJZeEooDDqbmQcmovg-88" value="cout &amp;lt;&amp;lt; endl;" style="shape=parallelogram;html=1;strokeWidth=2;perimeter=parallelogramPerimeter;whiteSpace=wrap;rounded=1;arcSize=12;size=0.16666666666666666;" vertex="1" parent="1">
          <mxGeometry x="629.9999999999999" y="2230" width="160" height="40" as="geometry" />
        </mxCell>
        <mxCell id="iAsJZeEooDDqbmQcmovg-89" style="edgeStyle=orthogonalEdgeStyle;rounded=0;orthogonalLoop=1;jettySize=auto;html=1;exitX=1;exitY=0.5;exitDx=0;exitDy=0;endArrow=none;endFill=0;" edge="1" parent="1" source="iAsJZeEooDDqbmQcmovg-90">
          <mxGeometry relative="1" as="geometry">
            <mxPoint x="960" y="2250" as="targetPoint" />
          </mxGeometry>
        </mxCell>
        <mxCell id="iAsJZeEooDDqbmQcmovg-90" value="break;" style="rounded=1;whiteSpace=wrap;html=1;absoluteArcSize=1;arcSize=14;strokeWidth=2;" vertex="1" parent="1">
          <mxGeometry x="809.9999999999999" y="2230" width="100" height="40" as="geometry" />
        </mxCell>
        <mxCell id="iAsJZeEooDDqbmQcmovg-91" value="srand(time(0));" style="rounded=1;whiteSpace=wrap;html=1;absoluteArcSize=1;arcSize=14;strokeWidth=2;" vertex="1" parent="1">
          <mxGeometry x="440" y="2150" width="100" height="40" as="geometry" />
        </mxCell>
        <mxCell id="iAsJZeEooDDqbmQcmovg-93" style="edgeStyle=orthogonalEdgeStyle;rounded=0;orthogonalLoop=1;jettySize=auto;html=1;exitX=0.5;exitY=1;exitDx=0;exitDy=0;exitPerimeter=0;entryX=0;entryY=0.5;entryDx=0;entryDy=0;" edge="1" parent="1" source="iAsJZeEooDDqbmQcmovg-57" target="iAsJZeEooDDqbmQcmovg-95">
          <mxGeometry relative="1" as="geometry">
            <mxPoint x="130" y="2550" as="targetPoint" />
            <mxPoint x="112.06" y="2209" as="sourcePoint" />
            <Array as="points">
              <mxPoint x="112" y="2520" />
            </Array>
          </mxGeometry>
        </mxCell>
        <mxCell id="iAsJZeEooDDqbmQcmovg-94" style="edgeStyle=orthogonalEdgeStyle;rounded=0;orthogonalLoop=1;jettySize=auto;html=1;exitX=1;exitY=0.5;exitDx=0;exitDy=0;" edge="1" parent="1" source="iAsJZeEooDDqbmQcmovg-95">
          <mxGeometry relative="1" as="geometry">
            <mxPoint x="299.99999999999994" y="2520" as="targetPoint" />
          </mxGeometry>
        </mxCell>
        <mxCell id="iAsJZeEooDDqbmQcmovg-95" value="default:" style="rounded=1;whiteSpace=wrap;html=1;absoluteArcSize=1;arcSize=14;strokeWidth=2;" vertex="1" parent="1">
          <mxGeometry x="170.00000000000006" y="2500" width="100" height="40" as="geometry" />
        </mxCell>
        <mxCell id="iAsJZeEooDDqbmQcmovg-96" style="edgeStyle=orthogonalEdgeStyle;rounded=0;orthogonalLoop=1;jettySize=auto;html=1;exitX=1;exitY=0.5;exitDx=0;exitDy=0;endArrow=none;endFill=0;" edge="1" parent="1" source="iAsJZeEooDDqbmQcmovg-97">
          <mxGeometry relative="1" as="geometry">
            <mxPoint x="960" y="2520" as="targetPoint" />
          </mxGeometry>
        </mxCell>
        <mxCell id="iAsJZeEooDDqbmQcmovg-97" value="break;" style="rounded=1;whiteSpace=wrap;html=1;absoluteArcSize=1;arcSize=14;strokeWidth=2;" vertex="1" parent="1">
          <mxGeometry x="300.71" y="2500" width="100" height="40" as="geometry" />
        </mxCell>
        <mxCell id="iAsJZeEooDDqbmQcmovg-101" style="edgeStyle=orthogonalEdgeStyle;rounded=0;orthogonalLoop=1;jettySize=auto;html=1;exitX=0.5;exitY=1;exitDx=0;exitDy=0;" edge="1" parent="1" source="iAsJZeEooDDqbmQcmovg-99">
          <mxGeometry relative="1" as="geometry">
            <mxPoint x="470" y="1960" as="targetPoint" />
          </mxGeometry>
        </mxCell>
        <mxCell id="iAsJZeEooDDqbmQcmovg-99" value="cout &amp;lt;&amp;lt; &quot;След. строка: &quot;;" style="shape=parallelogram;html=1;strokeWidth=2;perimeter=parallelogramPerimeter;whiteSpace=wrap;rounded=1;arcSize=12;size=0.16666666666666666;" vertex="1" parent="1">
          <mxGeometry x="369.68" y="1880" width="200.32" height="40" as="geometry" />
        </mxCell>
        <mxCell id="iAsJZeEooDDqbmQcmovg-102" style="edgeStyle=orthogonalEdgeStyle;rounded=0;orthogonalLoop=1;jettySize=auto;html=1;exitX=0.5;exitY=1;exitDx=0;exitDy=0;" edge="1" source="iAsJZeEooDDqbmQcmovg-104" parent="1">
          <mxGeometry relative="1" as="geometry">
            <mxPoint x="469.68" y="2040" as="targetPoint" />
          </mxGeometry>
        </mxCell>
        <mxCell id="iAsJZeEooDDqbmQcmovg-103" style="edgeStyle=orthogonalEdgeStyle;rounded=0;orthogonalLoop=1;jettySize=auto;html=1;exitX=1;exitY=0.5;exitDx=0;exitDy=0;entryX=0;entryY=0.5;entryDx=0;entryDy=0;" edge="1" source="iAsJZeEooDDqbmQcmovg-104" parent="1" target="iAsJZeEooDDqbmQcmovg-64">
          <mxGeometry relative="1" as="geometry">
            <mxPoint x="320" y="2040" as="targetPoint" />
            <Array as="points">
              <mxPoint x="610" y="1980" />
              <mxPoint x="610" y="2120" />
              <mxPoint x="320" y="2120" />
              <mxPoint x="320" y="1819" />
            </Array>
          </mxGeometry>
        </mxCell>
        <mxCell id="iAsJZeEooDDqbmQcmovg-104" value="for (int j = 0; j &amp;lt; n; ++j)" style="verticalLabelPosition=middle;verticalAlign=middle;html=1;shape=hexagon;perimeter=hexagonPerimeter2;arcSize=6;size=0.15;labelPosition=center;align=center;" vertex="1" parent="1">
          <mxGeometry x="369.68" y="1960" width="200" height="40" as="geometry" />
        </mxCell>
        <mxCell id="iAsJZeEooDDqbmQcmovg-105" value="1" style="text;html=1;strokeColor=none;fillColor=none;align=center;verticalAlign=middle;whiteSpace=wrap;rounded=0;" vertex="1" parent="1">
          <mxGeometry x="439.68" y="2000" width="30" height="30" as="geometry" />
        </mxCell>
        <mxCell id="iAsJZeEooDDqbmQcmovg-106" value="{" style="text;html=1;strokeColor=none;fillColor=none;align=center;verticalAlign=middle;whiteSpace=wrap;rounded=0;" vertex="1" parent="1">
          <mxGeometry x="469.68" y="2000" width="30" height="30" as="geometry" />
        </mxCell>
        <mxCell id="iAsJZeEooDDqbmQcmovg-107" value="0" style="text;html=1;strokeColor=none;fillColor=none;align=center;verticalAlign=middle;whiteSpace=wrap;rounded=0;" vertex="1" parent="1">
          <mxGeometry x="569.6800000000001" y="1950" width="30" height="30" as="geometry" />
        </mxCell>
        <mxCell id="iAsJZeEooDDqbmQcmovg-109" style="edgeStyle=orthogonalEdgeStyle;rounded=0;orthogonalLoop=1;jettySize=auto;html=1;exitX=0.5;exitY=1;exitDx=0;exitDy=0;entryX=0;entryY=0.5;entryDx=0;entryDy=0;" edge="1" parent="1" source="iAsJZeEooDDqbmQcmovg-108" target="iAsJZeEooDDqbmQcmovg-104">
          <mxGeometry relative="1" as="geometry" />
        </mxCell>
        <mxCell id="iAsJZeEooDDqbmQcmovg-108" value="cin &amp;gt;&amp;gt; mtr[i][j];" style="shape=parallelogram;html=1;strokeWidth=2;perimeter=parallelogramPerimeter;whiteSpace=wrap;rounded=1;arcSize=12;size=0.16666666666666666;" vertex="1" parent="1">
          <mxGeometry x="389.68" y="2040" width="160" height="40" as="geometry" />
        </mxCell>
        <mxCell id="iAsJZeEooDDqbmQcmovg-110" value="}" style="text;html=1;strokeColor=none;fillColor=none;align=center;verticalAlign=middle;whiteSpace=wrap;rounded=0;" vertex="1" parent="1">
          <mxGeometry x="612.06" y="2090" width="30" height="30" as="geometry" />
        </mxCell>
        <mxCell id="iAsJZeEooDDqbmQcmovg-111" value="mtr[i] = rand() % 100;" style="rounded=1;whiteSpace=wrap;html=1;absoluteArcSize=1;arcSize=14;strokeWidth=2;" vertex="1" parent="1">
          <mxGeometry x="419.62" y="2390" width="140" height="40" as="geometry" />
        </mxCell>
        <mxCell id="iAsJZeEooDDqbmQcmovg-112" value="}" style="text;html=1;strokeColor=none;fillColor=none;align=center;verticalAlign=middle;whiteSpace=wrap;rounded=0;" vertex="1" parent="1">
          <mxGeometry x="489.62" y="2430" width="30" height="30" as="geometry" />
        </mxCell>
        <mxCell id="iAsJZeEooDDqbmQcmovg-113" style="edgeStyle=orthogonalEdgeStyle;rounded=0;orthogonalLoop=1;jettySize=auto;html=1;exitX=0.5;exitY=1;exitDx=0;exitDy=0;" edge="1" parent="1" source="iAsJZeEooDDqbmQcmovg-114">
          <mxGeometry relative="1" as="geometry">
            <mxPoint x="489.62" y="2390" as="targetPoint" />
          </mxGeometry>
        </mxCell>
        <mxCell id="iAsJZeEooDDqbmQcmovg-121" style="edgeStyle=orthogonalEdgeStyle;rounded=0;orthogonalLoop=1;jettySize=auto;html=1;exitX=1;exitY=0.5;exitDx=0;exitDy=0;entryX=0;entryY=0.5;entryDx=0;entryDy=0;" edge="1" parent="1" source="iAsJZeEooDDqbmQcmovg-114" target="iAsJZeEooDDqbmQcmovg-81">
          <mxGeometry relative="1" as="geometry">
            <mxPoint x="620" y="2510" as="targetPoint" />
            <Array as="points">
              <mxPoint x="610" y="2330" />
              <mxPoint x="610" y="2470" />
              <mxPoint x="320" y="2470" />
              <mxPoint x="320" y="2250" />
            </Array>
          </mxGeometry>
        </mxCell>
        <mxCell id="iAsJZeEooDDqbmQcmovg-114" value="for (int j = 0; j &amp;lt; n; ++j)" style="verticalLabelPosition=middle;verticalAlign=middle;html=1;shape=hexagon;perimeter=hexagonPerimeter2;arcSize=6;size=0.15;labelPosition=center;align=center;" vertex="1" parent="1">
          <mxGeometry x="389.62" y="2310" width="200" height="40" as="geometry" />
        </mxCell>
        <mxCell id="iAsJZeEooDDqbmQcmovg-115" value="1" style="text;html=1;strokeColor=none;fillColor=none;align=center;verticalAlign=middle;whiteSpace=wrap;rounded=0;" vertex="1" parent="1">
          <mxGeometry x="459.62" y="2350" width="30" height="30" as="geometry" />
        </mxCell>
        <mxCell id="iAsJZeEooDDqbmQcmovg-116" value="{" style="text;html=1;strokeColor=none;fillColor=none;align=center;verticalAlign=middle;whiteSpace=wrap;rounded=0;" vertex="1" parent="1">
          <mxGeometry x="489.62" y="2350" width="30" height="30" as="geometry" />
        </mxCell>
        <mxCell id="iAsJZeEooDDqbmQcmovg-117" value="0" style="text;html=1;strokeColor=none;fillColor=none;align=center;verticalAlign=middle;whiteSpace=wrap;rounded=0;" vertex="1" parent="1">
          <mxGeometry x="589.6200000000001" y="2300" width="30" height="30" as="geometry" />
        </mxCell>
        <mxCell id="iAsJZeEooDDqbmQcmovg-118" style="edgeStyle=orthogonalEdgeStyle;rounded=0;orthogonalLoop=1;jettySize=auto;html=1;exitX=0.5;exitY=1;exitDx=0;exitDy=0;entryX=0;entryY=0.5;entryDx=0;entryDy=0;" edge="1" parent="1" target="iAsJZeEooDDqbmQcmovg-114">
          <mxGeometry relative="1" as="geometry">
            <mxPoint x="489.62" y="2430" as="sourcePoint" />
            <Array as="points">
              <mxPoint x="490" y="2450" />
              <mxPoint x="350" y="2450" />
              <mxPoint x="350" y="2330" />
            </Array>
          </mxGeometry>
        </mxCell>
        <mxCell id="iAsJZeEooDDqbmQcmovg-120" value="}" style="text;html=1;strokeColor=none;fillColor=none;align=center;verticalAlign=middle;whiteSpace=wrap;rounded=0;" vertex="1" parent="1">
          <mxGeometry x="612.06" y="2440" width="30" height="30" as="geometry" />
        </mxCell>
        <mxCell id="iAsJZeEooDDqbmQcmovg-123" style="edgeStyle=orthogonalEdgeStyle;rounded=0;orthogonalLoop=1;jettySize=auto;html=1;exitX=0.5;exitY=1;exitDx=0;exitDy=0;" edge="1" parent="1" source="iAsJZeEooDDqbmQcmovg-125">
          <mxGeometry relative="1" as="geometry">
            <mxPoint x="269" y="2790" as="targetPoint" />
          </mxGeometry>
        </mxCell>
        <mxCell id="iAsJZeEooDDqbmQcmovg-124" style="edgeStyle=orthogonalEdgeStyle;rounded=0;orthogonalLoop=1;jettySize=auto;html=1;exitX=1;exitY=0.5;exitDx=0;exitDy=0;" edge="1" parent="1" source="iAsJZeEooDDqbmQcmovg-125" target="iAsJZeEooDDqbmQcmovg-150">
          <mxGeometry relative="1" as="geometry">
            <mxPoint x="629" y="2780" as="targetPoint" />
          </mxGeometry>
        </mxCell>
        <mxCell id="iAsJZeEooDDqbmQcmovg-125" value="for (int i = 0; i &amp;lt; n; ++i)" style="verticalLabelPosition=middle;verticalAlign=middle;html=1;shape=hexagon;perimeter=hexagonPerimeter2;arcSize=6;size=0.15;labelPosition=center;align=center;" vertex="1" parent="1">
          <mxGeometry x="169" y="2710" width="200" height="40" as="geometry" />
        </mxCell>
        <mxCell id="iAsJZeEooDDqbmQcmovg-126" value="1" style="text;html=1;strokeColor=none;fillColor=none;align=center;verticalAlign=middle;whiteSpace=wrap;rounded=0;" vertex="1" parent="1">
          <mxGeometry x="239" y="2750" width="30" height="30" as="geometry" />
        </mxCell>
        <mxCell id="iAsJZeEooDDqbmQcmovg-127" value="{" style="text;html=1;strokeColor=none;fillColor=none;align=center;verticalAlign=middle;whiteSpace=wrap;rounded=0;" vertex="1" parent="1">
          <mxGeometry x="269" y="2750" width="30" height="30" as="geometry" />
        </mxCell>
        <mxCell id="iAsJZeEooDDqbmQcmovg-128" value="0" style="text;html=1;strokeColor=none;fillColor=none;align=center;verticalAlign=middle;whiteSpace=wrap;rounded=0;" vertex="1" parent="1">
          <mxGeometry x="368.9999999999999" y="2700" width="30" height="30" as="geometry" />
        </mxCell>
        <mxCell id="iAsJZeEooDDqbmQcmovg-130" value="}" style="text;html=1;strokeColor=none;fillColor=none;align=center;verticalAlign=middle;whiteSpace=wrap;rounded=0;" vertex="1" parent="1">
          <mxGeometry x="268.62" y="2910" width="30" height="30" as="geometry" />
        </mxCell>
        <mxCell id="iAsJZeEooDDqbmQcmovg-131" style="edgeStyle=orthogonalEdgeStyle;rounded=0;orthogonalLoop=1;jettySize=auto;html=1;exitX=0.5;exitY=1;exitDx=0;exitDy=0;" edge="1" parent="1" source="iAsJZeEooDDqbmQcmovg-133">
          <mxGeometry relative="1" as="geometry">
            <mxPoint x="268.62" y="2870" as="targetPoint" />
          </mxGeometry>
        </mxCell>
        <mxCell id="iAsJZeEooDDqbmQcmovg-132" style="edgeStyle=orthogonalEdgeStyle;rounded=0;orthogonalLoop=1;jettySize=auto;html=1;exitX=1;exitY=0.5;exitDx=0;exitDy=0;" edge="1" parent="1" source="iAsJZeEooDDqbmQcmovg-133" target="iAsJZeEooDDqbmQcmovg-146">
          <mxGeometry relative="1" as="geometry">
            <mxPoint x="429.85" y="2870" as="targetPoint" />
            <Array as="points">
              <mxPoint x="448.85" y="2810" />
            </Array>
          </mxGeometry>
        </mxCell>
        <mxCell id="iAsJZeEooDDqbmQcmovg-133" value="for (int j = 0; j &amp;lt; n; ++j)" style="verticalLabelPosition=middle;verticalAlign=middle;html=1;shape=hexagon;perimeter=hexagonPerimeter2;arcSize=6;size=0.15;labelPosition=center;align=center;" vertex="1" parent="1">
          <mxGeometry x="168.62" y="2790" width="200" height="40" as="geometry" />
        </mxCell>
        <mxCell id="iAsJZeEooDDqbmQcmovg-134" value="1" style="text;html=1;strokeColor=none;fillColor=none;align=center;verticalAlign=middle;whiteSpace=wrap;rounded=0;" vertex="1" parent="1">
          <mxGeometry x="238.62" y="2830" width="30" height="30" as="geometry" />
        </mxCell>
        <mxCell id="iAsJZeEooDDqbmQcmovg-135" value="{" style="text;html=1;strokeColor=none;fillColor=none;align=center;verticalAlign=middle;whiteSpace=wrap;rounded=0;" vertex="1" parent="1">
          <mxGeometry x="268.62" y="2830" width="30" height="30" as="geometry" />
        </mxCell>
        <mxCell id="iAsJZeEooDDqbmQcmovg-136" value="0" style="text;html=1;strokeColor=none;fillColor=none;align=center;verticalAlign=middle;whiteSpace=wrap;rounded=0;" vertex="1" parent="1">
          <mxGeometry x="368.6200000000001" y="2780" width="30" height="30" as="geometry" />
        </mxCell>
        <mxCell id="iAsJZeEooDDqbmQcmovg-137" style="edgeStyle=orthogonalEdgeStyle;rounded=0;orthogonalLoop=1;jettySize=auto;html=1;exitX=0.5;exitY=1;exitDx=0;exitDy=0;entryX=0;entryY=0.5;entryDx=0;entryDy=0;" edge="1" parent="1" target="iAsJZeEooDDqbmQcmovg-133">
          <mxGeometry relative="1" as="geometry">
            <mxPoint x="268.62" y="2910" as="sourcePoint" />
            <Array as="points">
              <mxPoint x="269" y="2930" />
              <mxPoint x="129" y="2930" />
              <mxPoint x="129" y="2810" />
            </Array>
          </mxGeometry>
        </mxCell>
        <mxCell id="iAsJZeEooDDqbmQcmovg-138" value="}" style="text;html=1;strokeColor=none;fillColor=none;align=center;verticalAlign=middle;whiteSpace=wrap;rounded=0;" vertex="1" parent="1">
          <mxGeometry x="449.53" y="2920" width="30" height="30" as="geometry" />
        </mxCell>
        <mxCell id="iAsJZeEooDDqbmQcmovg-145" value="cout &amp;lt;&amp;lt; mtr[i][j] &amp;lt;&amp;lt; &quot;\t&quot;;" style="shape=parallelogram;html=1;strokeWidth=2;perimeter=parallelogramPerimeter;whiteSpace=wrap;rounded=1;arcSize=12;size=0.16666666666666666;" vertex="1" parent="1">
          <mxGeometry x="177.39000000000004" y="2870" width="182.46" height="40" as="geometry" />
        </mxCell>
        <mxCell id="iAsJZeEooDDqbmQcmovg-147" style="edgeStyle=orthogonalEdgeStyle;rounded=0;orthogonalLoop=1;jettySize=auto;html=1;exitX=0.5;exitY=1;exitDx=0;exitDy=0;entryX=0;entryY=0.5;entryDx=0;entryDy=0;" edge="1" parent="1" source="iAsJZeEooDDqbmQcmovg-146" target="iAsJZeEooDDqbmQcmovg-125">
          <mxGeometry relative="1" as="geometry">
            <Array as="points">
              <mxPoint x="448.85" y="2950" />
              <mxPoint x="109.85" y="2950" />
              <mxPoint x="109.85" y="2730" />
            </Array>
          </mxGeometry>
        </mxCell>
        <mxCell id="iAsJZeEooDDqbmQcmovg-146" value="cout &amp;lt;&amp;lt; endl;" style="shape=parallelogram;html=1;strokeWidth=2;perimeter=parallelogramPerimeter;whiteSpace=wrap;rounded=1;arcSize=12;size=0.16666666666666666;" vertex="1" parent="1">
          <mxGeometry x="368.6199999999999" y="2870" width="160" height="40" as="geometry" />
        </mxCell>
        <mxCell id="iAsJZeEooDDqbmQcmovg-149" style="edgeStyle=orthogonalEdgeStyle;rounded=0;orthogonalLoop=1;jettySize=auto;html=1;exitX=0.5;exitY=1;exitDx=0;exitDy=0;entryX=0.5;entryY=0;entryDx=0;entryDy=0;" edge="1" parent="1" source="iAsJZeEooDDqbmQcmovg-148" target="iAsJZeEooDDqbmQcmovg-125">
          <mxGeometry relative="1" as="geometry" />
        </mxCell>
        <mxCell id="iAsJZeEooDDqbmQcmovg-148" value="cout &amp;lt;&amp;lt; &quot;Полученный массив:&quot; &amp;lt;&amp;lt; endl;" style="shape=parallelogram;html=1;strokeWidth=2;perimeter=parallelogramPerimeter;whiteSpace=wrap;rounded=1;arcSize=12;size=0.16666666666666666;" vertex="1" parent="1">
          <mxGeometry x="110.68" y="2630" width="315.88" height="40" as="geometry" />
        </mxCell>
        <mxCell id="iAsJZeEooDDqbmQcmovg-151" style="edgeStyle=orthogonalEdgeStyle;rounded=0;orthogonalLoop=1;jettySize=auto;html=1;exitX=0.5;exitY=1;exitDx=0;exitDy=0;" edge="1" parent="1" source="iAsJZeEooDDqbmQcmovg-150" target="iAsJZeEooDDqbmQcmovg-152">
          <mxGeometry relative="1" as="geometry">
            <mxPoint x="668.8421052631579" y="2860" as="targetPoint" />
          </mxGeometry>
        </mxCell>
        <mxCell id="iAsJZeEooDDqbmQcmovg-150" value="cout &amp;lt;&amp;lt; endl;" style="shape=parallelogram;html=1;strokeWidth=2;perimeter=parallelogramPerimeter;whiteSpace=wrap;rounded=1;arcSize=12;size=0.16666666666666666;" vertex="1" parent="1">
          <mxGeometry x="589" y="2760" width="160" height="40" as="geometry" />
        </mxCell>
        <mxCell id="iAsJZeEooDDqbmQcmovg-153" style="edgeStyle=orthogonalEdgeStyle;rounded=0;orthogonalLoop=1;jettySize=auto;html=1;exitX=0.5;exitY=1;exitDx=0;exitDy=0;" edge="1" parent="1" source="iAsJZeEooDDqbmQcmovg-152" target="iAsJZeEooDDqbmQcmovg-154">
          <mxGeometry relative="1" as="geometry">
            <mxPoint x="669.2" y="3080" as="targetPoint" />
          </mxGeometry>
        </mxCell>
        <mxCell id="iAsJZeEooDDqbmQcmovg-152" value="cout &amp;lt;&amp;lt; &quot;Количество элементов удовлетворяющих условию: &quot; &amp;lt;&amp;lt; value_count(mtr, n, min_value(mtr, n));" style="shape=parallelogram;html=1;strokeWidth=2;perimeter=parallelogramPerimeter;whiteSpace=wrap;rounded=1;arcSize=12;size=0.04545091141669356;" vertex="1" parent="1">
          <mxGeometry x="408.67999999999995" y="2990" width="520.32" height="40" as="geometry" />
        </mxCell>
        <mxCell id="iAsJZeEooDDqbmQcmovg-154" value="return 0;" style="ellipse;whiteSpace=wrap;html=1;" vertex="1" parent="1">
          <mxGeometry x="609" y="3080" width="120" height="60" as="geometry" />
        </mxCell>
        <mxCell id="iAsJZeEooDDqbmQcmovg-155" value="}" style="text;html=1;strokeColor=none;fillColor=none;align=center;verticalAlign=middle;whiteSpace=wrap;rounded=0;" vertex="1" parent="1">
          <mxGeometry x="729" y="3095" width="30" height="30" as="geometry" />
        </mxCell>
        <mxCell id="iAsJZeEooDDqbmQcmovg-159" style="edgeStyle=orthogonalEdgeStyle;rounded=0;orthogonalLoop=1;jettySize=auto;html=1;exitX=1;exitY=1;exitDx=0;exitDy=0;" edge="1" parent="1" source="iAsJZeEooDDqbmQcmovg-156">
          <mxGeometry relative="1" as="geometry">
            <mxPoint x="360" y="129.72727272727263" as="targetPoint" />
            <Array as="points">
              <mxPoint x="300" y="130" />
              <mxPoint x="300" y="130" />
            </Array>
          </mxGeometry>
        </mxCell>
        <mxCell id="iAsJZeEooDDqbmQcmovg-156" value="&lt;div&gt;int min_value(int m[100][100], int n)&lt;span style=&quot;background-color: initial;&quot;&gt;{&lt;/span&gt;&lt;/div&gt;&lt;div&gt;&amp;nbsp; &amp;nbsp; int mv = m[0][0];&lt;span style=&quot;&quot;&gt;&lt;/span&gt;&lt;/div&gt;&lt;div&gt;&lt;span style=&quot;&quot;&gt;&lt;span style=&quot;&quot;&gt;&lt;span style=&quot;white-space: pre;&quot;&gt;&amp;nbsp;&amp;nbsp;&amp;nbsp;&amp;nbsp;&lt;/span&gt;&lt;/span&gt;for (int i = 0; i &amp;lt; n; ++i) {&lt;/span&gt;&lt;/div&gt;&lt;div&gt;&lt;span style=&quot;&quot;&gt;&lt;span style=&quot;&quot;&gt;&lt;span style=&quot;white-space: pre;&quot;&gt;&amp;nbsp;&amp;nbsp;&amp;nbsp;&amp;nbsp;&lt;/span&gt;&lt;span style=&quot;white-space: pre;&quot;&gt;&amp;nbsp;&amp;nbsp;&amp;nbsp;&amp;nbsp;&lt;/span&gt;&lt;/span&gt;if (m[i][i] &amp;lt; mv) {&lt;/span&gt;&lt;span style=&quot;background-color: initial;&quot;&gt;mv = m[i][i];&lt;/span&gt;&lt;span style=&quot;background-color: initial;&quot;&gt;}&amp;nbsp;&lt;/span&gt;&lt;span style=&quot;background-color: initial;&quot;&gt;}&lt;/span&gt;&lt;/div&gt;&lt;div&gt;&lt;span style=&quot;&quot;&gt;&lt;span style=&quot;&quot;&gt;&lt;span style=&quot;white-space: pre;&quot;&gt;&amp;nbsp;&amp;nbsp;&amp;nbsp;&amp;nbsp;&lt;/span&gt;&lt;/span&gt;return mv;&amp;nbsp;&lt;/span&gt;&lt;span style=&quot;background-color: initial;&quot;&gt;}&lt;/span&gt;&lt;/div&gt;" style="shape=process;whiteSpace=wrap;html=1;backgroundOutline=1;size=0.037037037037037035;align=left;" vertex="1" parent="1">
          <mxGeometry x="10" y="50" width="270" height="80" as="geometry" />
        </mxCell>
        <mxCell id="iAsJZeEooDDqbmQcmovg-160" style="edgeStyle=orthogonalEdgeStyle;rounded=0;orthogonalLoop=1;jettySize=auto;html=1;exitX=1;exitY=0;exitDx=0;exitDy=0;" edge="1" parent="1" source="iAsJZeEooDDqbmQcmovg-157">
          <mxGeometry relative="1" as="geometry">
            <mxPoint x="360" y="140.125" as="targetPoint" />
            <Array as="points">
              <mxPoint x="300" y="140" />
              <mxPoint x="300" y="140" />
            </Array>
          </mxGeometry>
        </mxCell>
        <mxCell id="iAsJZeEooDDqbmQcmovg-157" value="&lt;div&gt;int value_count(int m[100][100], int n, int min)&amp;nbsp;&lt;span style=&quot;background-color: initial;&quot;&gt;{&lt;/span&gt;&lt;/div&gt;&lt;div&gt;&amp;nbsp; &amp;nbsp; int ct = 0;&lt;span style=&quot;&quot;&gt;&lt;/span&gt;&lt;/div&gt;&lt;div&gt;&lt;span style=&quot;&quot;&gt;&lt;span style=&quot;&quot;&gt;&lt;span style=&quot;white-space: pre;&quot;&gt;&amp;nbsp;&amp;nbsp;&amp;nbsp;&amp;nbsp;&lt;/span&gt;&lt;/span&gt;for (int i = 0; i &amp;lt; n; ++i) {&lt;/span&gt;&lt;/div&gt;&lt;div&gt;&lt;span style=&quot;&quot;&gt;&lt;span style=&quot;&quot;&gt;&lt;span style=&quot;white-space: pre;&quot;&gt;&amp;nbsp;&amp;nbsp;&amp;nbsp;&amp;nbsp;&lt;/span&gt;&lt;span style=&quot;white-space: pre;&quot;&gt;&amp;nbsp;&amp;nbsp;&amp;nbsp;&amp;nbsp;&lt;/span&gt;&lt;/span&gt;for (int j = 0; j &amp;lt; n; ++j) {&lt;/span&gt;&lt;/div&gt;&lt;div&gt;&lt;span style=&quot;&quot;&gt;&lt;span style=&quot;&quot;&gt;&lt;span style=&quot;white-space: pre;&quot;&gt;&amp;nbsp;&amp;nbsp;&amp;nbsp;&amp;nbsp;&lt;/span&gt;&lt;span style=&quot;white-space: pre;&quot;&gt;&amp;nbsp;&amp;nbsp;&amp;nbsp;&amp;nbsp;&lt;/span&gt;&lt;span style=&quot;white-space: pre;&quot;&gt;&amp;nbsp;&amp;nbsp;&amp;nbsp;&amp;nbsp;&lt;/span&gt;&lt;/span&gt;if (m[i][j] &amp;gt; min) {&lt;/span&gt;&lt;span style=&quot;background-color: initial;&quot;&gt;++ct;&lt;/span&gt;&lt;span style=&quot;background-color: initial;&quot;&gt;}&amp;nbsp;&lt;/span&gt;&lt;span style=&quot;background-color: initial;&quot;&gt;} }&lt;/span&gt;&lt;/div&gt;&lt;div&gt;&lt;span style=&quot;&quot;&gt;&lt;span style=&quot;&quot;&gt;&lt;span style=&quot;white-space: pre;&quot;&gt;&amp;nbsp;&amp;nbsp;&amp;nbsp;&amp;nbsp;&lt;/span&gt;&lt;/span&gt;return ct;&lt;/span&gt;&lt;span style=&quot;background-color: initial;&quot;&gt;}&lt;/span&gt;&lt;/div&gt;" style="shape=process;whiteSpace=wrap;html=1;backgroundOutline=1;size=0.034482758620689655;align=left;" vertex="1" parent="1">
          <mxGeometry x="9.84" y="140" width="270" height="100" as="geometry" />
        </mxCell>
      </root>
    </mxGraphModel>
  </diagram>
</mxfile>
